<?xml version="1.0" encoding="UTF-8"?>
<svg width="25px" height="25px" viewBox="0 0 25 25" version="1.1" xmlns="http://www.w3.org/2000/svg" xmlns:xlink="http://www.w3.org/1999/xlink">
    <!-- Generator: Sketch 52.2 (67145) - http://www.bohemiancoding.com/sketch -->
    <title>Rectangle</title>
    <desc>Created with Sketch.</desc>
    <g id="Page-1" stroke="none" stroke-width="1" fill="none" fill-rule="evenodd">
        <g id="iOS/个人中心" transform="translate(-335.000000, -36.000000)">
            <g id="设置-(2)" transform="translate(335.000000, 36.000000)">
                <rect id="Rectangle" fill="#000000" opacity="0" x="0" y="0" width="25" height="25"></rect>
                <path d="M19.3190315,13.159 C19.3400315,12.941 19.3530315,12.722 19.3530315,12.5 C19.3530315,12.278 19.3400315,12.059 19.3190315,11.841 L20.9900315,10.52 C21.3520315,10.224 21.4450315,9.714 21.2130315,9.311 L19.4310315,6.193 C19.2050315,5.797 18.7210315,5.607 18.2630315,5.783 L16.3050315,6.579 C15.9460315,6.321 15.5700315,6.1 15.1830315,5.919 L14.8860315,3.803 C14.8160315,3.345 14.4140315,3 13.9520315,3 L10.3870315,3 C9.91903147,3 9.52603147,3.337 9.45203147,3.81 L9.15603147,5.919 C8.76803147,6.101 8.39203147,6.322 8.03303147,6.579 L6.07003147,5.78 C5.64703147,5.616 5.13503147,5.797 4.90903147,6.193 L3.12703147,9.31 C2.89503147,9.716 2.98803147,10.226 3.35603147,10.525 L5.02003147,11.841 C4.99903147,12.058 4.98603147,12.278 4.98603147,12.5 C4.98603147,12.722 4.99903147,12.942 5.02003147,13.159 L3.34703147,14.48 C2.98803147,14.777 2.89503147,15.286 3.12703147,15.688 L4.91003147,18.808 C5.13703147,19.203 5.63203147,19.393 6.07703147,19.216 L8.03503147,18.42 C8.39503147,18.678 8.77103147,18.899 9.15703147,19.079 L9.45403147,21.198 C9.52703147,21.663 9.92003147,22 10.3870315,22 L13.9510315,22 C14.4130315,22 14.8140315,21.655 14.8870315,21.19 L15.1830315,19.08 C15.5700315,18.898 15.9460315,18.678 16.3050315,18.42 L18.2680315,19.22 C18.3780315,19.263 18.4930315,19.284 18.6110315,19.284 C18.9470315,19.284 19.2610315,19.102 19.4310315,18.807 L21.2100315,15.691 C21.4430315,15.289 21.3530315,14.779 20.9820315,14.472 L19.3190315,13.159 Z M18.6390315,18.291 L16.4200315,17.388 C16.2540315,17.319 16.0660315,17.346 15.9250315,17.456 C15.4870315,17.796 15.0190315,18.071 14.5330315,18.273 C14.3700315,18.341 14.2550315,18.491 14.2300315,18.666 L13.9030315,21.001 L10.4420315,21.052 L10.1080315,18.666 C10.0840315,18.491 9.96803147,18.342 9.80503147,18.273 C9.32303147,18.073 8.85403147,17.797 8.41303147,17.456 C8.32403147,17.388 8.21603147,17.352 8.10703147,17.352 C8.04403147,17.352 7.98003147,17.364 7.91903147,17.389 L5.77803147,18.312 L3.97703147,15.258 L5.85903147,13.772 C5.99703147,13.663 6.06703147,13.489 6.04503147,13.315 C6.00903147,13.047 5.98603147,12.776 5.98603147,12.5 C5.98603147,12.224 6.00903147,11.953 6.04403147,11.687 C6.06703147,11.512 5.99703147,11.339 5.85803147,11.23 L3.99503147,9.807 L5.70003147,6.709 L7.91703147,7.611 C8.08303147,7.679 8.27103147,7.653 8.41203147,7.544 C8.85103147,7.204 9.32103147,6.928 9.80703147,6.724 C9.97003147,6.656 10.0840315,6.507 10.1090315,6.332 L10.3870315,4 L13.8970315,3.949 L14.2310315,6.334 C14.2550315,6.509 14.3710315,6.658 14.5340315,6.726 C15.0180315,6.928 15.4870315,7.203 15.9270315,7.544 C16.0690315,7.653 16.2570315,7.679 16.4220315,7.612 L18.5630315,6.69 L20.3650315,9.742 L18.4820315,11.23 C18.3440315,11.339 18.2730315,11.512 18.2950315,11.686 C18.3290315,11.954 18.3540315,12.225 18.3540315,12.501 C18.3540315,12.777 18.3300315,13.048 18.2950315,13.316 C18.2730315,13.49 18.3440315,13.663 18.4820315,13.772 L20.3440315,15.193 L18.6390315,18.291 Z M12.1710315,8.73 C10.1090315,8.73 8.43203147,10.421 8.43203147,12.5 C8.43203147,14.578 10.1090315,16.27 12.1710315,16.27 C14.2330315,16.27 15.9090315,14.579 15.9090315,12.5 C15.9090315,10.421 14.2320315,8.73 12.1710315,8.73 Z M12.1710315,15.27 C10.6610315,15.27 9.43203147,14.028 9.43203147,12.5 C9.43203147,10.972 10.6610315,9.73 12.1710315,9.73 C13.6810315,9.73 14.9090315,10.973 14.9090315,12.5 C14.9090315,14.027 13.6800315,15.27 12.1710315,15.27 Z" id="Shape" fill="#FFFFFF" fill-rule="nonzero"></path>
            </g>
        </g>
    </g>
</svg>